PathFileType	4	(X/Y/Z)	C:\Users\Biomechanik\SynologyDrive\AlexP\Athlete_03\Athlete_3_25_03_31\Squat_bw_03\marker_experimental.trc
DataRate	CameraRate	NumFrames	NumMarkers	Units	OrigDataRate	OrigDataStartFrame	OrigNumFrames
200.000000	200.000000	4	55	mm	200.000000	272	544
Frame#	Time	BL			BR			GLAB			RFHD			LFHD			C7			T6			SPINMOL			SPINM2			SPINM3			T12			BELTOL			BELT2			BELT3			SACROL			SACR2			SACR3			LTHOL			LTH2			LTH3			LSHAOL			LSHA2			LSHA3			LHEE			LTOE			LM5			RTHOL			RTH2			RTH3			RSHAOL			RSHA2			RSHA3			RHEE			RTOE			RM5			STRN			XIPH			LACR			LUAOL			LUA2			LUA3			LLAOL			LLA2			LLA3			LWRR			LWRU			RACR			RUAOL			RUA2			RUA3			RLAOL			RLA2			RLA3			RWRR			RWRU			
		X1	Y1	Z1	X2	Y2	Z2	X3	Y3	Z3	X4	Y4	Z4	X5	Y5	Z5	X6	Y6	Z6	X7	Y7	Z7	X8	Y8	Z8	X9	Y9	Z9	X10	Y10	Z10	X11	Y11	Z11	X12	Y12	Z12	X13	Y13	Z13	X14	Y14	Z14	X15	Y15	Z15	X16	Y16	Z16	X17	Y17	Z17	X18	Y18	Z18	X19	Y19	Z19	X20	Y20	Z20	X21	Y21	Z21	X22	Y22	Z22	X23	Y23	Z23	X24	Y24	Z24	X25	Y25	Z25	X26	Y26	Z26	X27	Y27	Z27	X28	Y28	Z28	X29	Y29	Z29	X30	Y30	Z30	X31	Y31	Z31	X32	Y32	Z32	X33	Y33	Z33	X34	Y34	Z34	X35	Y35	Z35	X36	Y36	Z36	X37	Y37	Z37	X38	Y38	Z38	X39	Y39	Z39	X40	Y40	Z40	X41	Y41	Z41	X42	Y42	Z42	X43	Y43	Z43	X44	Y44	Z44	X45	Y45	Z45	X46	Y46	Z46	X47	Y47	Z47	X48	Y48	Z48	X49	Y49	Z49	X50	Y50	Z50	X51	Y51	Z51	X52	Y52	Z52	X53	Y53	Z53	X54	Y54	Z54	X55	Y55	Z55	

273	1.36	960.7122192382812	36.2066116333009	-1933.552124023438	1063.179809570312	32.89219665527343	86.64614105224609	588.9940795898438	921.4306030273439	-1194.089111328125	542.7891235351562	953.8612060546876	-1130.96484375	549.8179931640625	950.7214965820314	-1267.047119140625	320.8637084960938	846.6537475585939	-1201.784301757812	187.2538146972656	754.7538452148439	-1210.572143554688	165.1411590576172	732.7520751953126	-1233.39794921875	154.8447113037109	726.7350463867189	-1184.81591796875	121.2770080566406	684.2147216796876	-1222.863647460938	86.21227264404297	640.6894531250001	-1222.927001953125	51.24251937866211	633.8477172851564	-1238.324829101562	49.77078628540039	629.6867675781251	-1187.6748046875	12.83232879638672	582.9619140625001	-1218.725463867188	-45.13965606689453	451.1338500976563	-1244.168701171875	-43.46943664550781	449.8775634765626	-1192.8310546875	-49.56511688232422	389.5391845703126	-1219.500610351562	159.4475555419922	362.331268310547	-1514.009155273438	213.6629943847656	312.8841247558595	-1543.310180664062	210.5386199951172	362.9356079101564	-1547.877807617188	251.2928009033203	290.2715148925782	-1623.582275390625	189.9360656738281	254.7056427001954	-1586.859619140625	230.7230834960938	234.024887084961	-1608.215698242188	118.4166717529297	71.91909027099618	-1467.1376953125	320.5140991210938	47.53230667114267	-1545.2978515625	239.394287109375	28.41684532165537	-1625.729125976562	138.6368255615234	350.0035705566407	-916.1629638671875	172.7993621826172	412.8058776855469	-879.8197631835938	186.1603088378906	364.8063964843751	-878.5439453125	224.9368286132812	303.8207397460938	-801.1282958984375	224.3706817626953	224.8973083496094	-803.078857421875	194.4175872802734	256.2672424316407	-827.4744873046875	100.6242294311523	66.84834289550787	-971.1836547851562	287.7539672851562	45.63491439819342	-879.130126953125	201.6459350585938	40.1834220886231	-803.4057006835938	430.6517639160156	679.2251586914064	-1207.9951171875	373.4751892089844	544.5563964843751	-1206.198364257812	372.5852966308594	798.1982421875001	-1365.34912109375	275.8593139648438	731.9891967773439	-1489.802368164062	223.4167327880859	698.8276977539064	-1511.909057617188	265.7736206054688	690.7261962890626	-1539.887084960938	283.1856384277344	633.9078369140626	-1631.388305664062	355.6073303222656	601.3106689453126	-1632.611206054688	342.5317993164062	649.7409057617189	-1625.28271484375	434.17626953125	696.2016601562501	-1610.709106445312	423.4354858398438	693.5067138671876	-1533.287109375	369.5433044433594	799.6060791015626	-1059.659545898438	275.7260131835938	735.2531127929689	-940.3720703125	255.7812347412109	700.9338989257812	-887.9613647460938	223.4686737060547	697.0380249023439	-928.6482543945312	291.9798278808594	661.3268432617188	-781.9765625	318.3182678222656	734.0369262695312	-800.8568725585938	345.1927185058594	693.6217041015625	-788.7193603515625	408.1709594726562	760.1546020507812	-812.52001953125	407.5781860351562	747.9364624023438	-890.1824340820312	
274	1.365	960.7124633789062	36.20603942871106	-1933.552124023438	1063.1796875	32.89209365844726	86.64613342285156	588.8624267578125	920.8271484375001	-1194.126708984375	542.6251831054688	953.2344970703126	-1131.00927734375	549.690185546875	950.0936279296876	-1267.100341796875	320.7981872558594	845.9558715820314	-1201.877685546875	187.2127075195312	754.0911865234376	-1210.671142578125	165.1032562255859	732.0960693359376	-1233.496459960938	154.7994537353516	726.0891723632814	-1184.910034179688	121.2258224487305	683.5808715820314	-1222.953002929688	86.03629302978516	640.0153808593751	-1223.027221679688	51.08118057250977	633.1253051757814	-1238.41943359375	49.61484527587891	628.9759521484376	-1187.780151367188	12.72295475006104	582.1962280273439	-1218.824340820312	-45.09861755371094	450.2382202148438	-1244.249633789062	-43.43000793457031	448.9974060058594	-1192.914306640625	-49.4388313293457	388.6541137695313	-1219.566040039062	159.6396026611328	361.8960266113282	-1514.017700195312	213.9603424072266	312.5615234375001	-1543.380615234375	210.7306213378906	362.6194458007814	-1547.904052734375	251.4608001708984	290.2269897460939	-1623.5302734375	190.0750579833984	254.6977081298829	-1586.8203125	230.8552551269531	233.995346069336	-1608.162231445312	118.4414291381836	71.92443847656259	-1467.103515625	320.5328063964844	47.51473236083994	-1545.267211914062	239.4040374755859	28.43639755249033	-1625.703979492188	138.8003692626953	349.6076354980469	-916.2161865234375	172.8549652099609	412.4975891113282	-879.9461059570312	186.2835235595703	364.5305480957032	-878.5909423828125	225.0056610107422	303.8149414062501	-801.1856689453125	224.4386444091797	224.8926239013672	-803.1246337890625	194.4944000244141	256.2620849609376	-827.5350341796875	100.6533737182617	66.84693145751959	-971.2144165039062	287.7586669921875	45.62195968627935	-879.1672973632812	201.6654052734375	40.20272445678716	-803.4274291992188	430.6430358886719	678.5369262695314	-1208.049926757812	373.4273071289062	543.8242797851564	-1206.252563476562	372.5696716308594	797.4421386718751	-1365.429931640625	275.9088439941406	731.2365722656251	-1489.9345703125	223.4709014892578	698.0746459960939	-1512.075439453125	265.8394165039062	689.9667968750001	-1540.022583007812	283.2737731933594	633.1692504882814	-1631.507568359375	355.7046508789062	600.5816040039064	-1632.719848632812	342.6209106445312	649.0071411132814	-1625.3837890625	434.2552185058594	695.4760131835939	-1610.767456054688	423.4819641113281	692.7752685546876	-1533.352172851562	369.5120239257812	798.9248046875001	-1059.739624023438	275.7015991210938	734.6098022460939	-940.4169921875	255.7557373046875	700.3062744140625	-887.9990234375	223.4427032470703	696.4000854492189	-928.6852416992188	291.9630737304688	660.71826171875	-782.010986328125	318.3060607910156	733.4359130859375	-800.9005126953125	345.1768798828125	693.0142822265625	-788.7607421875	408.1555480957031	759.5375366210938	-812.585693359375	407.5224609375	747.3311767578125	-890.2478637695312	
275	1.37	960.7125854492188	36.20566940307629	-1933.552001953125	1063.1796875	32.89204788208007	86.64613342285156	588.7303466796875	920.2373046875001	-1194.173217773438	542.4641723632812	952.6213989257814	-1131.059814453125	549.5596313476562	949.4801635742189	-1267.1611328125	320.7318115234375	845.2721557617189	-1201.970947265625	187.1704711914062	753.4421997070314	-1210.769775390625	165.0630187988281	731.4538574218751	-1233.594848632812	154.7525939941406	725.4555664062501	-1185.005737304688	121.1720962524414	682.9583129882814	-1223.042724609375	85.86458587646484	639.3537597656251	-1223.12548828125	50.92198181152344	632.4188232421876	-1238.513305664062	49.46272659301758	628.2794799804689	-1187.8837890625	12.61353302001953	581.4461669921876	-1218.923217773438	-45.06039810180664	449.3646240234376	-1244.328491210938	-43.39546203613281	448.1382446289063	-1192.996459960938	-49.31894683837891	387.7912902832032	-1219.630737304688	159.8199310302734	361.4710998535157	-1514.026977539062	214.2447052001953	312.2503356933595	-1543.446655273438	210.9092407226562	362.3140869140626	-1547.929321289062	251.6145324707031	290.1876525878907	-1623.479858398438	190.2022094726562	254.6934661865235	-1586.779663085938	230.9747924804688	233.9702911376954	-1608.1103515625	118.463981628418	71.92884826660165	-1467.072143554688	320.5497741699219	47.49932479858408	-1545.23876953125	239.4128265380859	28.45520973205576	-1625.679931640625	138.9568939208984	349.2234802246094	-916.2702026367188	172.9049682617188	412.1979980468751	-880.0735473632812	186.4007263183594	364.2638549804688	-878.6401977539062	225.0711212158203	303.8116149902344	-801.2454223632812	224.5038452148438	224.8900756835938	-803.1720581054688	194.5684356689453	256.2584533691407	-827.5970458984375	100.6814422607422	66.84463500976568	-971.244384765625	287.7632141113281	45.60958862304693	-879.2037963867188	201.6844482421875	40.22229003906255	-803.4489135742188	430.6331481933594	677.8618164062501	-1208.108642578125	373.3821411132812	543.1055297851564	-1206.312744140625	372.5524597167969	796.6996459960939	-1365.511840820312	275.9551086425781	730.4996337890626	-1490.070068359375	223.5224151611328	697.3388671875001	-1512.240112304688	265.9039916992188	689.2208251953126	-1540.157470703125	283.3567504882812	632.4460449218751	-1631.63232421875	355.7966003417969	599.8597412109376	-1632.823974609375	342.7062072753906	648.2838134765626	-1625.485961914062	434.3317565917969	694.7580566406251	-1610.827758789062	423.5276184082031	692.0515747070314	-1533.419067382812	369.483642578125	798.2534179687501	-1059.82666015625	275.6806945800781	733.9801025390626	-940.462158203125	255.7333374023438	699.6927490234375	-888.0366821289062	223.4189147949219	695.7783203125001	-928.7213134765625	291.9491882324219	660.1231689453125	-782.0469360351562	318.2972106933594	732.8472900390625	-800.947509765625	345.1651000976562	692.4175415039062	-788.806884765625	408.1454772949219	758.9304809570312	-812.656005859375	407.4724731445312	746.7330322265625	-890.3170776367188	
276	1.375	960.7125854492188	36.20553970336926	-1933.551635742188	1063.1796875	32.89207458496093	86.64614105224609	588.597900390625	919.6610717773439	-1194.228393554688	542.3060913085938	952.0216064453126	-1131.115966796875	549.426025390625	948.8814086914064	-1267.22900390625	320.664794921875	844.6026000976564	-1202.063598632812	187.1272125244141	752.8065185546876	-1210.867431640625	165.0206756591797	730.8251953125001	-1233.692260742188	154.7042083740234	724.8339233398439	-1185.102661132812	121.1154174804688	682.3471069335939	-1223.132446289062	85.69721221923828	638.7044677734376	-1223.221557617188	50.76507568359375	631.7276611328126	-1238.605712890625	49.31467819213867	627.5968017578126	-1187.985473632812	12.50421237945557	580.7112426757814	-1219.021606445312	-45.02457046508789	448.5127563476563	-1244.40576171875	-43.36510848999023	447.2995300292969	-1193.077758789062	-49.20494842529297	386.9501647949219	-1219.694946289062	159.9884490966797	361.0567321777345	-1514.0380859375	214.5149688720703	311.9504394531251	-1543.510498046875	211.0741271972656	362.0196533203126	-1547.95458984375	251.7537078857422	290.1533813476564	-1623.432495117188	190.3173828125	254.692855834961	-1586.738647460938	231.0815887451172	233.9495697021485	-1608.061401367188	118.4844665527344	71.93261718750009	-1467.04345703125	320.5650634765625	47.48603439331064	-1545.212646484375	239.4205474853516	28.4732494354249	-1625.6572265625	139.1060791015625	348.8505859375001	-916.3253173828125	172.9488830566406	411.9074707031251	-880.2017822265625	186.5114288330078	364.0059509277344	-878.6917724609375	225.13330078125	303.8105163574219	-801.3073120117188	224.5665588378906	224.8894805908204	-803.22119140625	194.6397552490234	256.2560119628907	-827.6602783203125	100.708625793457	66.84137725830084	-971.2735595703125	287.7677307128906	45.59772491455084	-879.239501953125	201.7031402587891	40.24192047119146	-803.4703369140625	430.6221008300781	677.2000732421876	-1208.171020507812	373.3397216796875	542.3971557617189	-1206.378784179688	372.532470703125	795.9712524414064	-1365.594482421875	275.9966735839844	729.7784423828126	-1490.208374023438	223.570556640625	696.6194458007814	-1512.401489257812	265.9667053222656	688.4883422851564	-1540.290893554688	283.4341125488281	631.7371826171876	-1631.761596679688	355.8823852539062	599.1446533203126	-1632.922973632812	342.7868041992188	647.5704345703126	-1625.589233398438	434.4051208496094	694.0476074218751	-1610.89013671875	423.5716857910156	691.3354492187501	-1533.48779296875	369.4578247070312	797.5913085937501	-1059.92041015625	275.6629028320312	733.3632812500001	-940.507568359375	255.7142486572266	699.0921020507812	-888.0744018554688	223.3971099853516	695.1719970703126	-928.75634765625	291.9378662109375	659.5413208007812	-782.0841674804688	318.2913513183594	732.2703857421875	-800.9981689453125	345.1570129394531	691.8314208984375	-788.8577880859375	408.1402282714844	758.33349609375	-812.7307739257812	407.4287414550781	746.1409912109375	-890.3898315429688	
